<svg xmlns="http://www.w3.org/2000/svg" viewBox="0 20 260 230" fill="currentColor">
  <g>
    <g>
      <path d="m182.81,144.96l-14.07,22.9c-3.85,6.27-15.71,11.15-15.71,11.15l-15.41,26.93.5,6.95c.21,3.76-23.87,16.57-31.21,20.82H38.45c-2.5-4.26-14.21-20.98-12.04-25.19.85-1.63,4.22-4,7.75-6.8l16.68-26.79c-3.51-7.14-5.93-11.44-4.36-13.79l12.2-18.21c-13.73,0-48.45-3.31-48.45-23.55,0-37.41,52.88-35.61,61.41-64.3,0,0,3.11,4.73,3.11,9.94,0,19.16-26.48,27.97-26.48,35.79,0,10.92,36.79,13.31,64.62,13.31l-35.49,53.22,3.92,8.3-19.2,31.21h37.68l14.97-28.17,11.6-7.45,33.35-55.44c45.3,0,64.65-7.37,64.65-15.49,0-5.41-7.67-11.02-7.67-22.35s13.39-21.05,13.39-21.05c-6.82,25.66,25.29,25.65,25.29,46.16,0,28.87-38.63,41.91-72.58,41.91"/>
      <path d="m230.1,56.9s-13.39,9.82-13.39,21.05,7.67,16.94,7.67,22.35c0,8.12-19.35,15.49-64.65,15.49l-33.35,55.44-11.6,7.45-14.97,28.17h-37.68l19.2-31.21-3.92-8.3,35.49-53.22c-27.83,0-64.62-2.39-64.62-13.31,0-7.83,26.48-16.63,26.48-35.79,0-5.21-3.11-9.94-3.11-9.94-8.53,28.69-61.41,26.89-61.41,64.3,0,20.25,34.72,23.55,48.45,23.55l-12.2,18.21c-1.58,2.35.85,6.65,4.36,13.79l-16.68,26.79c-3.53,2.81-6.89,5.17-7.74,6.8-2.17,4.21,9.54,20.93,12.04,25.19h68.46c7.34-4.24,31.42-17.06,31.21-20.82l-.5-6.95,15.41-26.93s11.86-4.88,15.71-11.15l14.07-22.9c33.95,0,72.58-13.04,72.58-41.91,0-20.5-32.11-20.5-25.29-46.16"/>
    </g>
    <path d="m239.33,63.9c0-8.18,8.09-32.4,8.09-32.4,0,0-40.94,22.69-40.94,46.44,0,11.43,6.55,20.9,6.55,20.9-12.01,5.57-35.97,6.72-59.09,6.72l-35.1,58.35-11.84,7.6-13.34,25.1h-13.25l12.51-20.34-3.81-8.08,42.89-64.31c-48.59,0-58.64-1.53-69.55-4.34,0,0,22.53-14.4,22.53-34.53,0-13.39-16.88-33.93-16.88-33.93l-6.26,21.07C55.06,74.96,0,74.74,0,119.36c0,19.54,18.68,29.18,40.41,32.44l-2.43,3.63c-4.08,6.08-1.93,12.34,1.18,18.89l-12.73,20.44s-6.98,4.86-9.09,9.02c-4.36,8.59,1.3,17.59,15.3,39.87h77.43c30.38-17.18,38.26-21.63,38.26-31.34,0-.09-.16-2.13-.29-4.01l12.23-21.37c4.85-2.37,13.14-7.15,17.18-13.73l11.16-18.18c38.13-1.51,77-17.9,77-51.98,0-23.15-26.29-28.93-26.29-39.15m-53.87,85.67l-12.74,20.74c-3.78,6.15-12.75,10.69-16.4,12.35l-13.95,24.37.41,6.01c0,5.75-10.05,11.43-34.44,25.21H35.79c-10.21-16.73-16.62-25.81-13.53-31.88,1.49-2.88,8.35-7.82,8.35-7.82l14.87-23.88c-3.51-7.08-5.79-11.82-2.9-16.12l7.55-11.27c-22.15-1.57-44.59-9.46-44.59-27.9,0-45.03,59.95-35.56,64.46-75.24,0,0,9.39,11.4,9.39,20.88,0,20.44-26.45,32.48-26.45,35.9,0,1.24,7.89,8.54,68.63,8.54l-38.86,58.28,3.87,8.2-16.16,26.25h26.54l14.23-26.77,11.71-7.52,34.15-56.77c46.94,0,62.63-7.21,62.63-10.83,0-3.03-7.67-10.24-7.67-22.35,0-17.34,25.95-32.62,25.95-32.62,0,0-4.21,13.98-4.21,18.58,0,15.39,26.26,18.11,26.26,39.15,0,31.24-38.17,45.83-74.6,46.51"/>
  </g>
</svg>
